<svg xmlns="http://www.w3.org/2000/svg" viewBox="0 0 1997.89 1997.89"><defs><style>.cls-1{fill:#631a35;}.cls-1,.cls-2,.cls-3,.cls-4,.cls-5,.cls-6{fill-rule:evenodd;}.cls-2{fill:#a61c49;}.cls-3{fill:#fea;}.cls-4{fill:#29cfc3;}.cls-5{fill:#fff;}.cls-6{fill:#23b0a7;}.cls-7{fill:#26bfb5;}</style></defs><title>Libby-App-IconB</title><path class="cls-1" d="M1617.43,1997.89h-1237C170.34,1997.89,0,1827.55,0,1617.43v-1237C0,170.34,170.34,0,380.46,0h1237c210.12,0,380.46,170.34,380.46,380.46v1237C1997.89,1827.55,1827.55,1997.89,1617.43,1997.89Z"/><g><g><g><path class="cls-2" d="M999.92,1029.77c-362.51,0-655.75,293-655.75,655.75a649.81,649.81,0,0,0,79.49,312.37H1574.21a650.37,650.37,0,0,0,79.51-312.37C1653.72,1323,1360.67,1029.77,999.92,1029.77Z"/><path class="cls-3" d="M998.94,1096.3c-324.88,0-588.24,263.37-588.24,588.25A585.52,585.52,0,0,0,501,1997.89h995.85a585.52,585.52,0,0,0,90.32-313.34C1587.19,1359.67,1323.82,1096.3,998.94,1096.3Z"/><path class="cls-4" d="M1468.37,885.39s-108.68,53.26-132.48,53.26-134-53.26-134-53.26V1024.7c100.48,29.26,191.21,83.89,266.32,152V885.39Z"/><path class="cls-2" d="M388.07,1921.21a1014.66,1014.66,0,0,0,122.52,7.41c448.94,0,828.81-296.17,954.66-703.94-118.63-120.58-283.3-195.11-465.33-195.11-362.7,0-655.75,293.25-655.75,655.76a648,648,0,0,0,43.9,235.88Z"/></g><path class="cls-1" d="M1538.22,1234.63s-366.41,53.46-496.35,127.21c-22,.19-64.78.19-85.85,0C827.25,1288.68,448,1234.05,448,1234.05c-106.13-18.34-192.37,55.21-192.37,162.91v580a379.76,379.76,0,0,0,124.87,21h1237a380.37,380.37,0,0,0,113.16-17.12V1397C1730.59,1289.26,1644.35,1216.49,1538.22,1234.63Z"/><path class="cls-5" d="M1610.6,1266.63s-438.79,66.14-568.73,140.08H956c-128.77-73.36-580.44-140.47-580.44-140.47-66.14-11.12-120,34.92-120,102v608.63a379.76,379.76,0,0,0,124.87,21h1237a380.37,380.37,0,0,0,113.16-17.12V1368.28C1730.59,1301.16,1676.74,1255.7,1610.6,1266.63Z"/><path class="cls-4" d="M282.9,1322.82c-56.38-10.73-100.48,28.29-99.5,85.85l-1.12,533.58a378.68,378.68,0,0,0,198.18,55.64H998.94V1453.54Z"/><path class="cls-6" d="M1715,1320.87l-716,130.72v546.3h618.49a378.67,378.67,0,0,0,201-57.35V1406.71C1818.39,1349,1772.15,1310.14,1715,1320.87Z"/><rect class="cls-7" x="891.63" y="1434.03" width="212.67" height="563.86"/></g></g></svg>
