<?xml version="1.0" standalone="no"?>
<!DOCTYPE svg PUBLIC "-//W3C//DTD SVG 20010904//EN"
 "http://www.w3.org/TR/2001/REC-SVG-20010904/DTD/svg10.dtd">
<svg version="1.0" xmlns="http://www.w3.org/2000/svg"
 width="1314.000000pt" height="2656.000000pt" viewBox="0 0 1314.000000 2656.000000"
 preserveAspectRatio="xMidYMid meet">

<g transform="translate(0.000000,2656.000000) scale(0.100000,-0.100000)"
fill="#f36b36" stroke="none">
<path d="M2198 26555 c-3 -3 -59 -10 -124 -16 -524 -43 -952 -211 -1284 -505
-368 -324 -580 -762 -656 -1354 -16 -120 -18 -261 -21 -1237 l-4 -1103 -48 0
c-35 0 -51 -4 -55 -16 -9 -23 -7 -947 2 -961 4 -6 28 -13 52 -15 l45 -3 3
-452 2 -453 -23 0 c-13 0 -31 -6 -40 -12 -16 -12 -17 -81 -15 -998 l3 -985 38
-3 37 -3 -2 -267 -3 -267 -35 -5 -35 -5 0 -990 0 -990 35 -5 35 -5 5 -6955 c6
-6448 7 -6964 23 -7082 53 -404 160 -710 342 -983 299 -449 764 -736 1350
-834 281 -48 112 -46 4755 -46 4649 0 4455 -2 4750 46 640 103 1132 431 1431
951 148 260 238 569 281 968 9 89 13 1738 15 7368 l3 7252 28 0 c15 0 33 5 40
12 9 9 12 370 12 1564 0 854 -3 1559 -6 1568 -4 10 -18 16 -40 16 l-33 0 -4
2363 c-4 2471 -3 2446 -48 2717 -73 440 -244 801 -515 1090 -295 312 -689 512
-1164 589 -291 47 -100 45 -4736 48 -2415 2 -4393 1 -4396 -2z m8917 -218
c405 -48 687 -142 946 -315 446 -299 702 -761 771 -1387 11 -98 13 -2153 13
-11365 0 -10736 -1 -11251 -18 -11386 -66 -523 -252 -905 -590 -1211 -275
-249 -632 -392 -1122 -450 -141 -16 -410 -17 -4355 -21 -2771 -2 -4285 0
-4440 7 -480 21 -736 77 -1035 226 -171 86 -295 175 -435 315 -306 305 -460
666 -522 1220 -11 93 -13 2252 -13 11305 0 11878 -2 11270 45 11543 105 611
425 1060 935 1311 282 139 555 201 965 220 91 5 2087 8 4435 7 4015 -2 4279
-3 4420 -19z"/>
</g>
</svg>
