<?xml version="1.0" standalone="no"?>
<!DOCTYPE svg PUBLIC "-//W3C//DTD SVG 20010904//EN"
 "http://www.w3.org/TR/2001/REC-SVG-20010904/DTD/svg10.dtd">
<svg version="1.0" xmlns="http://www.w3.org/2000/svg"
 width="1314.000000pt" height="2656.000000pt" viewBox="0 0 1314.000000 2656.000000"
 preserveAspectRatio="xMidYMid meet">

<g transform="translate(0.000000,2656.000000) scale(0.100000,-0.100000)"
fill="#100e0c" stroke="none">
<path d="M2260 26349 c-410 -19 -683 -81 -965 -220 -510 -251 -830 -700 -935
-1311 -47 -273 -45 335 -45 -11543 0 -9053 2 -11212 13 -11305 62 -554 216
-915 522 -1220 140 -140 264 -229 435 -315 299 -149 555 -205 1035 -226 155
-7 1669 -9 4440 -7 3945 4 4214 5 4355 21 405 48 688 142 946 316 252 169 443
391 578 671 97 203 154 407 188 674 17 135 18 650 18 11386 0 9212 -2 11267
-13 11365 -69 626 -325 1088 -771 1387 -259 173 -541 267 -946 315 -141 16
-405 17 -4420 19 -2348 1 -4344 -2 -4435 -7z m1070 -441 c25 -13 55 -38 67
-56 24 -36 26 -51 42 -239 16 -194 68 -317 187 -438 116 -118 253 -178 449
-196 70 -6 1004 -9 2590 -7 2783 4 2538 -3 2704 79 64 32 103 60 161 118 135
134 184 252 201 490 12 174 27 212 99 249 l45 23 575 -4 c585 -5 659 -9 855
-48 480 -96 829 -379 996 -807 43 -112 86 -294 106 -456 17 -134 18 -685 18
-11336 0 -10651 -1 -11202 -18 -11336 -49 -390 -169 -671 -380 -886 -229 -234
-516 -361 -932 -410 -89 -10 -961 -13 -4510 -13 -4686 0 -4490 -2 -4730 47
-562 114 -944 489 -1061 1043 -31 146 -45 288 -54 540 -12 345 -12 21671 0
22025 15 439 57 652 175 895 123 250 329 455 581 575 196 93 389 137 719 163
22 2 272 4 555 5 l516 2 44 -22z"/>
</g>
</svg>
