<?xml version="1.0" encoding="UTF-8"?>
<svg width="20px" height="183px" viewBox="0 0 20 183" version="1.1" xmlns="http://www.w3.org/2000/svg" xmlns:xlink="http://www.w3.org/1999/xlink">
    <title>Check This Out</title>
    <g id="Page-1" stroke="none" stroke-width="1" fill="none" fill-rule="evenodd">
        <g id="Desktop-HD-Copy-2" transform="translate(-48.000000, -51.000000)" fill="#fbf1d3" fill-rule="nonzero">
            <g id="Spine">
                <path d="M-23.752,151.336 C-19.552,151.336 -15.88,148.624 -14.776,144.352 L-19.528,144.352 C-20.464,146.344 -22,147.352 -23.8,147.352 C-26.608,147.352 -28.576,144.952 -28.576,142.072 C-28.576,139.312 -26.656,136.888 -23.824,136.888 C-21.976,136.888 -20.296,138.04 -19.528,139.984 L-14.776,139.984 C-15.088,138.16 -16.096,136.528 -17.776,135.088 C-19.552,133.576 -21.52,132.904 -23.968,132.904 C-29.056,132.904 -33.112,137.152 -33.112,141.856 C-33.112,144.544 -32.296,146.8 -30.376,148.672 C-28.552,150.472 -26.224,151.336 -23.752,151.336 Z M-9.388,151 L-9.388,143.896 L-3.58,143.896 L-3.58,151 L0.956,151 L0.956,133.24 L-3.58,133.24 L-3.58,139.912 L-9.388,139.912 L-9.388,133.24 L-13.924,133.24 L-13.924,151 L-9.388,151 Z M12.536,151 L12.536,147.016 L7.016,147.016 L7.016,143.968 L12.368,143.968 L12.368,139.984 L7.016,139.984 L7.016,137.224 L12.536,137.224 L12.536,133.24 L2.672,133.24 L2.672,151 L12.536,151 Z M22.484,151.336 C26.684,151.336 30.356,148.624 31.46,144.352 L26.708,144.352 C25.772,146.344 24.236,147.352 22.436,147.352 C19.628,147.352 17.66,144.952 17.66,142.072 C17.66,139.312 19.58,136.888 22.412,136.888 C24.26,136.888 25.94,138.04 26.708,139.984 L31.46,139.984 C31.148,138.16 30.14,136.528 28.46,135.088 C26.684,133.576 24.716,132.904 22.268,132.904 C17.18,132.904 13.124,137.152 13.124,141.856 C13.124,144.544 13.94,146.8 15.86,148.672 C17.684,150.472 20.012,151.336 22.484,151.336 Z M37.328,151 L37.328,143.32 L37.376,143.32 L42.224,151 L47.528,151 L41.264,142.096 L47.144,133.24 L42.392,133.24 L37.376,141.232 L37.328,141.232 L37.328,133.24 L32.792,133.24 L32.792,151 L37.328,151 Z M59.768,151 L59.768,137.224 L63.248,137.224 L63.248,133.24 L51.728,133.24 L51.728,137.224 L55.232,137.224 L55.232,151 L59.768,151 Z M68.108,151 L68.108,143.896 L73.916,143.896 L73.916,151 L78.452,151 L78.452,133.24 L73.916,133.24 L73.916,139.912 L68.108,139.912 L68.108,133.24 L63.572,133.24 L63.572,151 L68.108,151 Z M84.704,151 L84.704,133.24 L80.168,133.24 L80.168,151 L84.704,151 Z M91.82,151.336 C95.66,151.336 98.012,149.32 98.012,145.888 C98.012,143.56 97.028,142.144 93.116,140.464 C91.172,139.624 90.212,139.144 90.212,138.088 C90.212,137.296 90.932,136.696 91.772,136.696 C92.66,136.696 93.188,137.152 93.38,138.424 L97.868,138.424 C97.844,136.048 96.932,134.632 95.036,133.648 C94.1,133.168 93.068,132.904 91.892,132.904 C88.628,132.904 85.7,135.112 85.7,138.136 C85.7,140.44 87.02,141.976 89.924,143.152 C90.0431111,143.2 90.1641975,143.247868 90.2863131,143.295937 L90.6548008,143.441073 C92.0719177,144.002272 93.5,144.633778 93.5,145.84 C93.5,146.8 92.732,147.544 91.796,147.544 C90.668,147.544 89.948,146.584 89.924,145.12 L85.412,145.12 L85.412,145.504 C85.412,149.32 87.956,151.336 91.82,151.336 Z M113.396,151.336 C118.484,151.336 122.564,147.256 122.564,142 C122.564,136.912 118.364,132.904 113.18,132.904 C107.78,132.904 103.82,137.032 103.82,142.528 C103.82,147.784 108.452,151.336 113.396,151.336 Z M113.252,147.352 C110.348,147.352 108.356,145 108.356,142.072 C108.356,139.264 110.348,136.888 113.18,136.888 C116.036,136.888 118.028,139.36 118.028,142.144 C118.028,144.976 116.06,147.352 113.252,147.352 Z M130.352,151.336 C133.04,151.336 135.032,150.208 136.208,148.312 C136.808,147.352 137.096,145.96 137.096,144.112 L137.096,133.24 L132.56,133.24 L132.56,144.088 C132.56,146.584 131.84,147.352 130.304,147.352 C128.696,147.352 128,146.272 128,144.064 L128,133.24 L123.464,133.24 L123.464,144.136 C123.464,147.568 124.472,149.224 126.56,150.448 C127.592,151.048 128.864,151.336 130.352,151.336 Z M145.436,151 L145.436,137.224 L148.916,137.224 L148.916,133.24 L137.396,133.24 L137.396,137.224 L140.9,137.224 L140.9,151 L145.436,151 Z" id="CHECKTHISOUT" transform="translate(57.902000, 142.120000) rotate(90.000000) translate(-57.902000, -142.120000) "></path>
            </g>
        </g>
    </g>
</svg>
