<?xml version="1.0" encoding="UTF-8"?>
<svg width="41px" height="41px" viewBox="0 0 41 41" version="1.1" xmlns="http://www.w3.org/2000/svg" xmlns:xlink="http://www.w3.org/1999/xlink">
    <title>Combined Shape</title>
    <g id="Page-1" stroke="none" stroke-width="1" fill="none" fill-rule="evenodd">
        <g id="Spine" transform="translate(-41.000000, -930.000000)" fill="#fbf1d3">
            <path d="M71,930 C77.0751322,930 82,934.924868 82,941 L82,960 C82,966.075132 77.0751322,971 71,971 L52,971 C45.9248678,971 41,966.075132 41,960 L41,941 C41,934.924868 45.9248678,930 52,930 L71,930 Z M61,937 L60.1908202,937 C59.9242686,937 59.7694211,937.234499 59.7065457,937.504539 L59.7065457,937.504539 L59.437653,938.658915 L59.1232759,938.658915 L59.1232759,939.607713 L57.4447031,939.607713 C54.6226673,939.607713 52.6879105,942.004621 52.3568113,944.775055 L52.3568113,944.775055 L52.0725341,947.152451 L50.2712205,947.152451 C49.6481519,947.152451 49.1387941,947.683123 49.1387941,948.332264 L49.1387941,948.332264 L49.1387941,948.882448 C49.1387941,949.531589 49.6481519,950.06226 50.2712205,950.06226 L50.2712205,950.06226 L51.0270632,950.06226 C49.765876,951.35218 49,952.988447 49,954.972803 L49,954.972803 L49,956 L49.7324402,956 C47.8130824,956 47.6648954,959.018978 49.573476,959.230742 L49.573476,959.230742 L49.573476,960.99949 C49.573476,961.496225 49.8695132,961.923324 50.2834263,962.09295 L50.2834263,962.09295 L53.1798077,962.09295 C53.5937208,961.923324 53.8897579,961.496225 53.8897579,960.99949 L53.8897579,960.99949 L53.8897579,959.239669 L69.2823411,959.239669 L69.2823411,960.99949 C69.2823411,961.496225 69.5780414,961.923324 69.9919545,962.09295 L69.9919545,962.09295 L72.8886727,962.09295 C73.3025858,961.923324 73.5982861,961.496225 73.5982861,960.99949 L73.5982861,960.99949 L73.5982861,959.230742 C75.5068667,959.018978 75.3586798,956 73.4393219,956 L73.4393219,956 L74,956 L74,954.972803 C74,952.988795 73.234124,951.352528 71.9732713,950.06226 L71.9732713,950.06226 L72.7287795,950.06226 C73.3518481,950.06226 73.8612059,949.531589 73.8612059,948.882448 L73.8612059,948.882448 L73.8612059,948.332264 C73.8612059,947.683123 73.3518481,947.152451 72.7287795,947.152451 L72.7287795,947.152451 L70.9274659,947.152451 L70.6428543,944.775055 C70.311755,942.004621 68.3769983,939.607713 65.5549625,939.607713 L65.5549625,939.607713 L64.7673476,939.607713 L64.7673476,938.658915 L64.4529705,938.658915 L64.1844122,937.504539 C64.1212024,937.234499 63.9666894,937 63.7001378,937 L63.7001378,937 L63,937 L63,938 L62.3335343,938 L62.3335343,939 L61.6667671,939 L61.6667671,938 L61,938 L61,937 Z M53.5,952 C54.3286523,952 55,952.671611 55,953.50017 C55,954.328389 54.3286523,955 53.5,955 C52.6716874,955 52,954.328389 52,953.50017 C52,952.671611 52.6716874,952 53.5,952 Z M70.5001699,952 C71.3283886,952 72,952.671687 72,953.5 C72,954.328313 71.3283886,955 70.5001699,955 C69.6716114,955 69,954.328313 69,953.5 C69,952.671687 69.6716114,952 70.5001699,952 Z M60.9555165,942 L60.9555165,942.559439 L59.8370711,942.559439 L59.8370711,943.670537 L63.1636225,943.670537 L63.1636225,942.559439 L62.0451771,942.559439 L62.0451771,942 L65.7050079,942 C67.4203043,942 68.4548229,943.537927 68.6504208,945.138799 L68.6504208,945.138799 L69,947.999646 C64.5889901,946.076619 58.4103163,946.077327 54,948 L54,948 L54.3495792,945.138799 C54.5451771,943.539341 55.5821234,942 57.2949921,942 L57.2949921,942 L60.9555165,942 Z M62.3335343,937 L61.6667671,937 L61.6667671,938 L62.3335343,938 L62.3335343,937 Z" id="Combined-Shape"></path>
        </g>
    </g>
</svg>
